name C:\Users\Nicos\Documents\OpenSimProjects\SprintingProject\Study1\PredictiveResults\IC_pred_Sprinting_optimum_28-October-2023__13-58-45___IKTD_Minus_6_p02_maxVel_01.mot
datacolumns 38
datarows 11
range 0.10886438 0.11871008
endheader
                time	/jointset/ground_pelvis/pelvis_tilt/value	/jointset/ground_pelvis/pelvis_list/value	/jointset/ground_pelvis/pelvis_rotation/value	/jointset/ground_pelvis/pelvis_tx/value	/jointset/ground_pelvis/pelvis_ty/value	/jointset/ground_pelvis/pelvis_tz/value	/jointset/hip_r/hip_flexion_r/value	/jointset/hip_r/hip_adduction_r/value	/jointset/hip_r/hip_rotation_r/value	/jointset/knee_r/knee_angle_r/value	/jointset/ankle_r/ankle_angle_r/value	/jointset/subtalar_r/subtalar_angle_r/value	/jointset/mtp_r/mtp_angle_r/value	/jointset/hip_l/hip_flexion_l/value	/jointset/hip_l/hip_adduction_l/value	/jointset/hip_l/hip_rotation_l/value	/jointset/knee_l/knee_angle_l/value	/jointset/ankle_l/ankle_angle_l/value	/jointset/subtalar_l/subtalar_angle_l/value	/jointset/mtp_l/mtp_angle_l/value	/jointset/back/lumbar_extension/value	/jointset/back/lumbar_bending/value	/jointset/back/lumbar_rotation/value	/jointset/acromial_r/arm_flex_r/value	/jointset/acromial_r/arm_add_r/value	/jointset/acromial_r/arm_rot_r/value	/jointset/elbow_r/elbow_flex_r/value	/jointset/radioulnar_r/pro_sup_r/value	/jointset/radius_hand_r/wrist_flex_r/value	/jointset/radius_hand_r/wrist_dev_r/value	/jointset/acromial_l/arm_flex_l/value	/jointset/acromial_l/arm_add_l/value	/jointset/acromial_l/arm_rot_l/value	/jointset/elbow_l/elbow_flex_l/value	/jointset/radioulnar_l/pro_sup_l/value	/jointset/radius_hand_l/wrist_flex_l/value	/jointset/radius_hand_l/wrist_dev_l/value	
          0.10886438	         -7.50562520	          3.80526264	        -17.05818484	          0.64388288	          0.95942130	          0.30734541	          5.76683971	         -8.74643682	          8.75827881	        -29.29560177	         11.50464818	         -6.79334262	         11.63886236	         71.03510931	        -10.51689818	          0.32212891	       -126.91086778	         -1.37944206	        -22.55332679	         13.52437016	        -11.22930806	          0.34328410	         10.57019394	         58.71834237	         -8.25524293	         -8.86955104	        126.24230551	         86.49485940	        -15.47335457	          8.34913501	        -50.84909675	         -0.37279229	         -3.81546550	         94.04399211	         63.47896872	         -4.35829742	          8.35922342	
          0.11034874	         -7.58077111	          4.05208998	        -16.82181185	          0.66204720	          0.95901284	          0.30693289	          5.36654300	         -9.27703295	          8.42463292	        -30.10635691	         10.43445902	         -7.01101794	         10.80821109	         72.08297519	        -10.17542793	          0.41072710	       -126.43912644	         -1.45230062	        -22.52847296	         13.95840003	        -10.96968383	          0.12588164	         10.45535912	         60.00313605	         -7.70823089	         -8.19799984	        126.46526492	         86.07986646	        -15.24187397	          8.45381214	        -52.44622469	         -0.11573269	         -4.14013425	         94.95012856	         62.90933923	         -4.51503462	          8.32032457	
          0.11034874	         -7.58077111	          4.05208998	        -16.82181185	          0.66204720	          0.95901284	          0.30693289	          5.36654300	         -9.27703295	          8.42463292	        -30.10635691	         10.43445902	         -7.01101794	         10.80821109	         72.08297519	        -10.17542793	          0.41072710	       -126.43912644	         -1.45230062	        -22.52847296	         13.95840003	        -10.96968383	          0.12588164	         10.45535912	         60.00313605	         -7.70823089	         -8.19799984	        126.46526492	         86.07986646	        -15.24187397	          8.45381214	        -52.44622469	         -0.11573269	         -4.14013425	         94.95012856	         62.90933923	         -4.51503462	          8.32032457	
          0.11099695	         -7.61572150	          4.15573882	        -16.71942153	          0.66996986	          0.95884414	          0.30676047	          5.20035053	         -9.50026001	          8.28314072	        -30.46541750	          9.92598559	         -7.12154956	         10.42456273	         72.53475574	        -10.03404166	          0.44747648	       -126.21960329	         -1.48697596	        -22.51316248	         14.13087142	        -10.85729596	          0.03350636	         10.40795201	         60.55202590	         -7.47073518	         -7.91099373	        126.53817958	         85.89673688	        -15.14079262	          8.49522474	        -53.13364865	         -0.01368227	         -4.27118130	         95.32709586	         62.65780665	         -4.58649920	          8.30316797	
          0.11304506	         -7.72058777	          4.46087095	        -16.40571568	          0.69495914	          0.95836977	          0.30625390	          4.69285363	        -10.16959349	          7.85955702	        -31.61364820	          8.18058008	         -7.52515119	          8.91489239	         73.92076920	         -9.62516868	          0.55649755	       -125.47216831	         -1.60941641	        -22.44483510	         14.60174909	        -10.52451410	         -0.24702426	         10.27492107	         62.24042906	         -6.72607701	         -7.04555207	        126.66842476	         85.31161780	        -14.82140963	          8.60817799	        -55.25839495	          0.26908160	         -4.63673363	         96.43373382	         61.85345406	         -4.82495256	          8.24766798	
          0.11452941	         -7.78377852	          4.65728443	        -16.19257115	          0.71302532	          0.95809225	          0.30592697	          4.33312455	        -10.61909746	          7.57964145	        -32.45237069	          6.79344774	         -7.86441465	          7.69508731	         74.87584475	         -9.36930126	          0.62986215	       -124.87958269	         -1.71207708	        -22.37867210	         14.87358596	        -10.31452342	         -0.43781443	         10.19820399	         63.42314742	         -6.19602358	         -6.45448709	        126.66510135	         84.88252239	        -14.58994653	          8.67322323	        -56.74786668	          0.43778242	         -4.85077916	         97.14654518	         61.26214565	         -5.00907607	          8.20607816	
          0.11452941	         -7.78377852	          4.65728443	        -16.19257115	          0.71302532	          0.95809225	          0.30592697	          4.33312455	        -10.61909746	          7.57964145	        -32.45237069	          6.79344774	         -7.86441465	          7.69508731	         74.87584475	         -9.36930126	          0.62986215	       -124.87958269	         -1.71207708	        -22.37867210	         14.87358596	        -10.31452342	         -0.43781443	         10.19820399	         63.42314742	         -6.19602358	         -6.45448709	        126.66510135	         84.88252239	        -14.58994653	          8.67322323	        -56.74786668	          0.43778242	         -4.85077916	         97.14654518	         61.26214565	         -5.00907607	          8.20607816	
          0.11517763	         -7.80629091	          4.73598183	        -16.10437712	          0.72090216	          0.95799081	          0.30579561	          4.17626742	        -10.80601792	          7.46550722	        -32.81867861	          6.15831797	         -8.02293360	          7.16364586	         75.27756786	         -9.26914087	          0.66044637	       -124.60739050	         -1.76100566	        -22.34611961	         14.97460398	        -10.23323275	         -0.51767629	         10.17071985	         63.92935659	         -5.96791209	         -6.20589067	        126.63727117	         84.69408791	        -14.48886526	          8.69726650	        -57.38373425	          0.50224372	         -4.92964244	         97.43242718	         61.00191866	         -5.09223859	          8.18752792	
          0.11722573	         -7.85659801	          4.94905928	        -15.85092315	          0.74573269	          0.95775149	          0.30543150	          3.68119617	        -11.34972902	          7.14774246	        -33.97353150	          4.02386326	         -8.57282867	          5.48450752	         76.48407299	         -9.00683370	          0.75863035	       -123.69532454	         -1.93508074	        -22.23311726	         15.22837399	        -10.02137663	         -0.74761097	         10.11326958	         65.49138835	         -5.27115043	         -5.43132024	        126.44028244	         84.09463252	        -14.16948241	          8.75633630	        -59.32871721	          0.67150987	         -5.11483532	         98.22044532	         60.17230918	         -5.36444903	          8.12719942	
          0.11871008	         -7.87762218	          5.07001061	        -15.69434555	          0.76366950	          0.95764844	          0.30521758	          3.32995338	        -11.69811093	          6.96361800	        -34.80803450	          2.34443867	         -9.01638436	          4.26756103	         77.30313288	         -8.87076449	          0.83268277	       -122.98516728	         -2.08198025	        -22.14672193	         15.35997506	         -9.90575659	         -0.89143540	         10.10196760	         66.58830568	         -4.79378532	         -4.86919030	        126.19170237	         83.65621715	        -13.93801902	          8.78400665	        -60.67426360	          0.76308288	         -5.18417465	         98.67450116	         59.56450709	         -5.56947260	          8.08199906	
          0.11871008	         -7.87762218	          5.07001061	        -15.69434555	          0.76366950	          0.95764844	          0.30521758	          3.32995338	        -11.69811093	          6.96361800	        -34.80803450	          2.34443867	         -9.01638436	          4.26756103	         77.30313288	         -8.87076449	          0.83268277	       -122.98516728	         -2.08198025	        -22.14672193	         15.35997506	         -9.90575659	         -0.89143540	         10.10196760	         66.58830568	         -4.79378532	         -4.86919030	        126.19170237	         83.65621715	        -13.93801902	          8.78400665	        -60.67426360	          0.76308288	         -5.18417465	         98.67450116	         59.56450709	         -5.56947260	          8.08199906	
